<?xml version="1.0" standalone="no"?>
<!DOCTYPE svg PUBLIC "-//W3C//DTD SVG 20010904//EN"
 "http://www.w3.org/TR/2001/REC-SVG-20010904/DTD/svg10.dtd">
<svg version="1.0" xmlns="http://www.w3.org/2000/svg"
 width="920.000000pt" height="920.000000pt" viewBox="0 0 920.000000 920.000000"
 preserveAspectRatio="xMidYMid meet">
<metadata>
Created by potrace 1.14, written by Peter Selinger 2001-2017
</metadata>
<g transform="translate(0.000000,920.000000) scale(0.100000,-0.100000)"
fill="#000000" stroke="none">
<path d="M2560 9183 c-8 -10 -34 -41 -56 -68 -167 -202 -346 -564 -404 -820
-7 -28 -14 -59 -16 -70 -3 -11 -7 -33 -10 -50 -3 -16 -7 -36 -10 -43 -2 -8 -7
-37 -10 -65 -4 -29 -10 -62 -15 -75 -6 -17 -6 -21 3 -16 7 4 8 3 4 -5 -27 -43
-27 -524 0 -691 3 -19 7 -48 9 -65 9 -70 15 -112 21 -135 4 -14 8 -34 9 -45 5
-36 57 -238 78 -305 11 -36 22 -69 23 -75 1 -5 9 -29 18 -52 8 -24 14 -43 13
-44 -1 0 -21 -2 -45 -5 -60 -6 -196 -67 -232 -104 -3 -3 -23 -18 -45 -35 -62
-46 -221 -209 -345 -355 -11 -14 -45 -52 -74 -85 -101 -115 -166 -194 -166
-204 0 -5 -3 -11 -8 -13 -11 -5 -81 -102 -129 -181 -67 -107 -175 -347 -157
-347 4 0 2 -6 -4 -12 -5 -7 -13 -32 -17 -56 -7 -46 -8 -46 -100 -58 -145 -18
-154 -20 -235 -44 -110 -33 -173 -79 -219 -162 -20 -37 -52 -134 -56 -173 -1
-11 -3 -20 -4 -20 -3 0 -8 -29 -15 -80 -3 -22 -9 -59 -12 -82 -5 -37 -2 -45
23 -67 46 -42 76 -68 142 -126 35 -30 78 -68 95 -84 17 -16 41 -35 54 -44 12
-8 22 -19 22 -26 0 -35 126 -418 180 -546 17 -41 38 -93 47 -115 10 -22 39
-84 65 -139 42 -85 48 -103 42 -140 -8 -54 -8 -189 0 -246 9 -70 25 -138 35
-155 3 -5 6 -17 8 -25 1 -9 10 -34 19 -55 10 -22 18 -42 18 -45 1 -8 49 -102
59 -115 4 -5 26 -39 48 -75 23 -36 45 -67 50 -68 5 -2 9 -8 9 -14 0 -6 9 -20
20 -32 10 -11 36 -41 56 -66 74 -92 283 -297 404 -395 25 -20 63 -52 85 -70
22 -18 71 -57 109 -88 l70 -55 -4 -174 c-7 -422 -1 -587 31 -728 5 -25 11 -54
13 -65 13 -67 102 -275 118 -275 4 0 8 -5 8 -11 0 -16 63 -94 121 -149 60 -57
75 -70 124 -100 22 -13 42 -27 45 -30 19 -23 288 -131 363 -146 10 -2 26 -5
35 -8 39 -12 183 -37 237 -41 17 -2 30 -4 30 -4 0 -14 571 -20 755 -8 210 14
244 17 299 22 31 3 88 8 126 11 39 3 88 7 110 9 22 2 76 7 120 10 44 4 100 8
125 11 25 3 68 7 95 9 28 3 68 7 90 10 22 2 60 7 85 10 25 3 65 7 90 10 49 5
101 11 170 20 25 3 65 8 90 11 25 3 59 8 75 10 17 3 46 7 65 10 19 2 53 6 75
10 162 24 204 29 405 49 30 3 66 8 80 10 14 2 45 6 70 9 25 3 56 8 70 11 13 2
42 7 64 11 22 3 43 7 47 9 3 2 21 7 40 10 57 10 181 55 241 87 189 100 293
313 324 663 5 51 4 377 0 430 -2 22 -7 94 -11 160 -4 66 -9 129 -11 139 -2 11
-6 82 -10 158 -5 129 -4 138 13 139 10 0 25 2 33 4 8 2 26 5 40 8 84 17 293
107 373 161 21 14 42 26 47 26 4 0 10 3 12 8 2 4 30 27 63 52 86 64 89 67 185
160 122 120 204 222 267 335 24 42 103 204 103 211 0 2 9 23 19 47 10 23 31
76 46 117 42 115 85 223 95 242 6 10 10 22 10 28 0 23 106 230 118 230 6 0 12
-4 12 -8 0 -17 119 -130 163 -156 60 -36 133 -44 192 -22 25 10 45 22 45 27 0
5 5 9 11 9 44 0 162 221 175 325 1 11 5 34 9 50 4 17 9 75 12 131 12 228 -69
380 -268 506 -54 35 -185 104 -245 129 -27 11 -36 27 -74 123 -24 61 -49 126
-57 143 -7 18 -13 35 -13 38 1 3 -6 18 -14 33 -8 15 -42 98 -77 185 l-62 159
20 51 c56 141 102 275 118 342 1 6 5 17 8 25 7 16 33 118 41 160 36 182 46
242 41 250 -3 6 -2 10 3 10 5 0 9 6 9 13 2 36 12 152 13 152 5 0 9 137 9 260
1 154 -8 285 -22 365 -3 14 -8 43 -12 65 -21 118 -63 261 -124 420 -16 41 -85
179 -92 185 -4 3 -9 15 -13 28 -4 12 -12 22 -17 22 -5 0 -9 5 -9 11 0 21 -117
168 -204 255 -141 141 -320 269 -478 342 -21 9 -38 20 -38 24 0 5 -5 8 -11 8
-6 0 -45 16 -86 36 -74 35 -123 56 -133 58 -3 1 -9 4 -15 8 -8 5 -45 16 -115
35 -51 14 -132 14 -182 -1 -64 -18 -112 -66 -166 -163 -18 -33 -46 -67 -61
-76 -26 -15 -28 -15 -73 26 -25 23 -65 58 -88 77 -43 36 -49 41 -121 100 -80
65 -254 196 -319 240 -36 24 -67 46 -70 49 -3 3 -14 11 -25 18 -11 7 -60 36
-110 66 -179 109 -408 215 -519 242 -189 46 -315 56 -431 34 -131 -24 -159
-55 -185 -203 -13 -73 -29 -114 -55 -141 -28 -31 -32 -31 -77 0 -56 38 -310
166 -423 213 -101 42 -266 99 -301 105 -10 1 -23 5 -29 8 -5 4 -28 10 -50 14
-22 5 -42 9 -45 10 -13 3 -68 15 -90 19 -14 3 -50 9 -80 15 -50 9 -74 13 -165
26 -98 14 -222 22 -480 30 -206 6 -221 6 -235 -12z m359 -447 c13 -3 25 -7 27
-9 2 -2 -9 -30 -24 -62 l-29 -59 26 -30 c14 -16 42 -48 62 -70 50 -57 62 -82
50 -105 -6 -10 -9 -28 -6 -39 4 -24 136 -266 147 -270 4 -2 8 -10 8 -19 0 -8
8 -27 18 -41 34 -49 233 -460 285 -587 26 -64 39 -74 150 -120 42 -17 51 -26
70 -70 12 -27 21 -52 20 -54 -2 -3 -15 -6 -30 -8 -49 -6 -74 -13 -69 -22 5 -7
67 -231 86 -311 40 -162 50 -182 116 -210 23 -10 45 -23 49 -30 12 -20 -4 -54
-36 -76 -38 -27 -208 -184 -263 -243 -23 -24 -52 -56 -66 -71 -45 -47 -134
-153 -165 -196 -11 -15 -26 -33 -32 -40 -7 -7 -13 -17 -13 -22 0 -6 -4 -12 -8
-14 -4 -1 -23 -24 -42 -50 -18 -27 -36 -48 -40 -48 -4 0 -38 22 -77 49 -87 62
-187 169 -264 286 -56 84 -178 316 -207 395 -8 19 -27 71 -43 115 -24 63 -61
170 -74 215 -1 3 -5 12 -8 20 -4 8 -9 26 -11 40 -3 14 -10 41 -16 60 -11 36
-17 58 -24 97 -3 13 -7 26 -9 31 -3 4 -8 27 -12 52 -4 25 -8 47 -10 50 -1 3
-6 25 -9 50 -3 25 -8 56 -10 70 -18 103 -25 364 -12 464 3 25 9 67 12 94 12
96 70 354 91 402 3 8 8 21 10 28 1 6 5 18 6 25 2 6 7 19 10 27 3 8 12 35 20
60 9 25 25 70 37 100 12 30 23 60 24 65 16 58 28 67 106 82 13 2 26 6 28 7 4
5 122 -2 151 -8z m2036 -107 c19 -33 35 -62 35 -64 0 -1 -16 -12 -36 -24 -31
-19 -35 -25 -30 -54 3 -17 11 -50 19 -72 14 -38 15 -91 2 -103 -3 -3 -23 -7
-44 -8 -54 -3 -76 -17 -101 -69 l-22 -45 23 -47 c12 -27 27 -51 32 -54 16 -11
0 -36 -26 -41 -13 -3 -57 3 -98 13 -41 9 -96 16 -124 15 -40 -2 -64 5 -125 36
-73 37 -110 58 -120 68 -3 3 -22 16 -42 30 -21 14 -38 28 -38 33 0 4 -5 7 -10
7 -6 0 -21 9 -33 21 -12 11 -50 44 -84 72 -35 28 -61 52 -60 54 11 10 356
-130 480 -195 66 -35 69 -35 80 -17 6 11 10 22 8 24 -1 2 1 7 6 10 9 6 11 11
121 241 68 142 123 230 142 230 5 0 25 -27 45 -61z m-1406 -44 c9 -2 43 -11
75 -20 51 -13 73 -19 106 -24 3 -1 -1 -5 -8 -9 -12 -8 -87 -7 -196 1 -41 4
-54 11 -93 50 -61 61 -49 73 34 35 37 -16 74 -31 82 -33z m1916 -24 c11 -5 36
-15 55 -22 106 -38 306 -155 410 -238 105 -85 111 -95 72 -122 l-23 -16 70
-69 c38 -38 88 -87 110 -109 l41 -39 16 22 c19 27 35 28 56 3 27 -32 51 -71
43 -71 -4 0 -3 -6 2 -12 6 -7 8 -26 6 -42 -11 -80 174 -163 277 -123 55 21 76
30 95 40 72 39 77 40 86 26 16 -24 -1 -62 -42 -97 -21 -18 -39 -40 -39 -48 0
-8 25 -49 55 -89 30 -41 55 -79 55 -84 0 -5 4 -11 8 -13 12 -5 50 -90 55 -125
3 -18 8 -37 12 -42 3 -6 3 -11 -2 -11 -4 0 -30 35 -57 78 -118 185 -175 221
-311 197 -22 -4 -44 -10 -49 -15 -10 -10 2 -70 15 -71 5 -1 15 -2 22 -3 6 -1
29 1 51 5 35 6 41 4 77 -32 58 -58 102 -158 123 -279 3 -19 9 -46 12 -60 17
-81 15 -82 -63 -13 l-74 64 -22 -27 -23 -26 -47 46 c-40 40 -68 78 -135 181
-7 11 -19 34 -27 50 -12 27 -64 111 -97 158 -7 9 -18 17 -25 17 -7 0 -13 4
-13 9 0 5 -9 13 -20 16 -11 4 -31 16 -44 28 -14 12 -34 29 -47 37 -12 8 -31
23 -41 33 -10 9 -20 17 -23 17 -9 0 -128 126 -165 175 -73 96 -133 229 -107
238 7 2 29 -7 50 -20 35 -22 60 -28 94 -24 22 2 -30 83 -97 151 -36 36 -99 88
-140 115 -41 28 -76 53 -78 58 -2 4 -10 7 -18 7 -8 0 -14 5 -14 10 0 6 -5 10
-11 10 -18 0 -160 105 -205 151 l-38 39 54 -15 c30 -9 64 -20 75 -24z m-1034
-597 c48 -23 60 -34 98 -96 23 -39 40 -73 37 -75 -11 -11 -103 53 -168 116
-99 96 -91 111 33 55z m869 -74 c63 -89 80 -100 80 -55 0 13 10 36 23 51 l23
27 27 -45 c20 -35 37 -49 71 -62 77 -30 148 -107 285 -313 76 -114 84 -123
114 -124 86 -1 168 -64 244 -187 51 -84 94 -132 118 -132 8 0 15 -4 15 -9 0
-5 10 -11 23 -15 36 -10 1 -25 -39 -16 -19 4 -34 6 -34 3 0 -3 -7 0 -15 7 -8
7 -15 10 -15 6 0 -3 -17 3 -38 14 -41 21 -102 76 -144 130 l-26 34 -124 2
c-186 3 -297 32 -313 83 -3 12 -19 21 -41 26 -26 4 -53 24 -98 68 -33 34 -66
71 -73 82 -7 11 -38 62 -69 113 l-58 93 27 54 c14 29 23 56 20 59 -3 3 -18 41
-33 83 -15 43 -31 86 -35 96 -5 12 -3 17 7 17 9 0 44 -40 78 -90z m-1252 -19
c38 -38 91 -98 118 -133 26 -34 52 -64 56 -66 4 -2 8 -9 8 -16 0 -7 8 -21 18
-32 9 -10 36 -48 59 -83 l41 -64 -16 -43 c-9 -24 -20 -44 -24 -44 -4 0 -8 -6
-8 -14 0 -30 -19 -25 -41 11 -13 21 -34 49 -46 63 -13 14 -23 30 -23 37 0 7
-9 18 -20 25 -11 7 -20 18 -20 24 0 5 -14 23 -31 40 -48 45 -158 291 -159 357
0 18 23 2 88 -62z m1807 -151 c22 -6 50 -12 63 -13 23 -1 62 -40 234 -239 58
-67 118 -158 118 -179 0 -10 5 -21 10 -24 11 -7 14 -45 3 -45 -12 0 -96 52
-126 79 -46 40 -107 102 -155 157 -23 27 -53 60 -65 73 -12 13 -20 24 -17 25
2 1 -7 12 -20 26 -14 14 -45 49 -70 79 -25 29 -51 59 -57 67 -20 19 -16 23 15
14 15 -5 45 -14 67 -20z m1541 -55 c17 -8 46 -28 64 -45 18 -16 34 -30 37 -30
22 0 177 -239 237 -365 133 -279 204 -495 231 -700 6 -46 6 -218 0 -255 -2
-14 -6 -43 -10 -65 -8 -49 -41 -146 -67 -198 -19 -37 -21 -39 -56 -32 -88 16
-195 85 -301 195 -177 184 -240 246 -292 280 -32 22 -62 40 -68 40 -5 0 -11 3
-13 8 -1 4 -39 26 -83 48 -176 92 -216 114 -278 157 l-65 44 28 49 c16 27 36
64 45 82 10 17 21 32 25 32 4 0 17 -15 28 -34 19 -32 147 -146 164 -146 4 0
16 -6 25 -14 10 -8 46 -35 79 -60 34 -25 86 -74 115 -108 153 -176 242 -248
325 -262 24 -4 36 0 53 18 24 26 32 49 36 121 4 59 8 75 19 93 9 15 -19 52
-41 52 -7 0 -13 5 -13 10 0 6 -6 10 -14 10 -21 0 -54 45 -52 72 1 19 9 25 51
34 39 8 49 14 47 28 -3 16 -53 132 -72 167 -24 44 35 18 80 -35 34 -40 89
-128 90 -143 0 -6 3 -13 8 -15 4 -1 16 -20 26 -41 11 -20 21 -36 22 -34 4 4 5
68 1 92 -5 33 -28 96 -54 155 -68 150 -111 250 -127 294 -27 71 -91 189 -155
286 -30 47 -59 92 -62 100 -4 9 -14 22 -23 29 -9 7 -16 19 -16 26 0 8 -3 15
-7 17 -5 2 -16 17 -26 35 -17 32 -17 32 5 28 12 -3 36 -11 54 -20z m-3597 -74
c31 -52 34 -91 7 -91 -6 0 -17 -5 -24 -12 -8 -8 12 -34 85 -107 82 -83 156
-174 142 -177 -2 0 2 -8 10 -17 21 -26 24 -82 6 -116 -8 -17 -19 -31 -23 -31
-23 0 -128 146 -180 250 -6 14 -43 85 -81 158 -60 114 -68 134 -53 139 15 6
27 14 65 49 6 7 13 11 13 10 1 0 16 -25 33 -55z m253 27 c29 -7 31 -14 31
-124 -1 -112 -8 -135 -36 -107 -73 76 -122 161 -112 194 15 47 40 55 117 37z
m2940 -105 c26 -19 60 -52 76 -74 16 -22 52 -54 78 -71 27 -17 73 -47 102 -65
28 -19 52 -40 52 -47 0 -7 -6 -34 -14 -60 -8 -25 -14 -50 -14 -54 0 -4 -7 -11
-15 -16 -16 -10 -89 34 -188 115 -37 30 -79 64 -94 76 -29 23 -48 83 -61 196
-6 43 -5 47 12 41 11 -4 40 -22 66 -41z m-2245 -5 c16 -22 36 -47 46 -56 9 -9
17 -22 17 -29 0 -7 5 -13 12 -13 25 0 -8 -19 -60 -34 l-52 -15 -41 81 c-22 44
-39 82 -37 84 7 6 49 20 68 21 13 1 30 -13 47 -39z m514 -194 c57 -43 59 -47
44 -64 -19 -21 -87 -40 -119 -34 -11 2 -30 6 -41 8 -26 5 -95 38 -95 45 1 9
124 89 138 90 8 1 40 -20 73 -45z m-349 -11 c2 -6 100 -89 116 -99 2 -1 -2
-10 -8 -21 -21 -33 -60 -55 -110 -60 -42 -4 -50 -2 -59 16 -7 12 -9 21 -6 21
4 0 3 6 -2 12 -9 15 -5 66 8 90 19 36 53 59 61 41z m-624 -38 c12 -14 22 -28
22 -31 0 -3 6 -11 13 -18 6 -7 26 -31 42 -52 17 -21 38 -46 48 -56 9 -10 17
-22 17 -26 0 -10 35 -28 68 -35 17 -4 30 2 47 21 13 15 34 39 47 53 l23 26 78
-31 77 -32 -31 -32 c-17 -18 -35 -32 -39 -32 -5 0 -15 -6 -22 -13 -21 -20
-100 -56 -143 -65 -47 -10 -102 2 -131 29 -12 12 -35 19 -57 19 -49 0 -104 24
-133 57 -26 30 -47 98 -48 156 -1 37 1 41 44 62 57 29 53 29 78 0z m2760 -95
c1 -1 5 -3 10 -4 54 -14 162 -103 217 -179 11 -16 44 -60 73 -98 28 -39 52
-75 52 -80 0 -17 -22 -9 -59 21 -49 41 -42 36 -176 133 -66 47 -147 112 -180
143 -53 51 -58 58 -40 64 17 6 96 6 103 0z m-3211 -57 c28 -66 33 -120 18
-181 -6 -23 -7 -22 -36 17 -42 59 -50 107 -25 154 11 20 22 37 25 37 4 0 11
-12 18 -27z m314 -150 c1 -29 2 -39 17 -143 11 -78 9 -86 -30 -99 -25 -9 -36
-8 -54 4 -26 17 -26 20 12 150 14 50 26 96 26 103 2 25 28 11 29 -15z m1119
-467 c65 -6 94 -10 160 -23 19 -3 38 -6 41 -5 4 1 22 -4 40 -9 19 -6 50 -15
69 -19 19 -5 44 -11 55 -13 28 -7 236 -76 260 -86 11 -5 47 -19 80 -32 33 -12
64 -26 70 -31 5 -4 15 -8 21 -8 7 0 60 -22 119 -50 59 -27 109 -50 112 -50 3
0 18 -9 34 -21 16 -11 29 -17 29 -12 0 4 4 4 8 -2 4 -5 32 -23 62 -39 30 -16
98 -56 150 -89 52 -33 104 -64 114 -71 11 -6 29 -19 40 -28 11 -10 23 -18 27
-18 4 0 14 -6 21 -13 7 -7 42 -35 78 -62 141 -108 328 -284 440 -415 111 -131
255 -333 311 -440 13 -25 27 -47 32 -48 4 -2 5 -7 2 -12 -5 -9 0 -10 -270 56
-104 25 -203 47 -220 49 -16 1 -48 6 -70 10 -22 5 -84 9 -138 9 l-99 1 -19 55
c-49 140 -96 196 -187 226 -50 16 -89 19 -302 18 -212 0 -312 -4 -550 -19 -25
-2 -110 -6 -190 -10 -80 -4 -179 -8 -220 -10 -41 -2 -131 -6 -200 -9 -141 -6
-260 -12 -400 -20 -52 -3 -138 -8 -190 -11 -172 -10 -244 -14 -325 -21 -44 -4
-101 -8 -126 -8 -50 -2 -70 -13 -137 -73 -45 -41 -46 -47 -51 -173 -2 -49 -12
-60 -57 -65 -21 -2 -39 -5 -39 -5 0 -2 -4 -3 -123 -14 -40 -4 -78 -9 -85 -11
-7 -2 -39 -6 -72 -9 -33 -4 -79 -9 -101 -11 l-41 -5 -7 40 c-3 22 -14 57 -23
77 -18 40 -83 132 -83 118 0 -4 -9 4 -21 19 -11 14 -27 26 -35 26 -8 0 -14 4
-14 9 0 9 -91 52 -160 74 -41 14 -59 18 -130 32 -143 28 -606 23 -780 -9 -14
-2 -54 -7 -90 -11 -36 -4 -74 -9 -85 -11 -11 -1 -40 -6 -65 -9 -25 -4 -58 -9
-75 -11 -42 -6 -84 -12 -130 -18 -22 -3 -53 -8 -70 -11 -72 -12 -123 -18 -162
-19 -24 0 -43 -3 -43 -6 0 -3 -34 -6 -75 -8 l-74 -3 29 82 c15 44 33 86 39 92
6 6 11 17 11 24 0 7 12 34 27 60 14 26 31 57 37 68 6 11 13 22 16 25 3 3 17
23 32 46 37 57 132 167 191 222 28 26 58 54 66 62 9 8 50 41 91 72 41 32 80
62 87 68 7 5 24 15 38 22 14 6 25 15 25 20 0 4 4 8 9 8 5 0 42 20 83 45 42 25
80 45 86 45 6 0 12 4 14 9 3 10 202 111 218 111 11 0 180 -224 180 -238 0 -5
9 -17 20 -27 11 -10 20 -24 20 -32 0 -7 4 -13 9 -13 5 0 16 -16 25 -35 9 -19
21 -35 26 -35 6 0 10 -4 10 -10 0 -11 64 -103 97 -140 13 -14 23 -28 23 -32 0
-9 72 -89 145 -161 96 -94 248 -185 337 -202 11 -2 28 -7 37 -10 19 -6 141 78
141 96 0 5 7 9 15 9 8 0 15 4 15 8 0 4 15 24 33 43 53 58 87 98 87 104 0 3 20
31 45 64 25 32 45 64 45 69 0 6 3 12 8 14 4 2 40 53 81 113 166 246 267 358
404 449 82 53 211 121 277 145 19 7 44 17 55 21 11 5 43 15 70 23 42 12 64 18
115 32 3 0 28 5 55 10 28 4 57 10 65 11 8 2 51 6 95 10 44 3 81 7 82 8 4 4
177 -2 243 -8z m-1440 -1998 c0 -4 -10 -10 -22 -12 -13 -3 -35 -7 -49 -10 -14
-3 -44 -8 -65 -12 -48 -8 -68 -12 -71 -14 -2 -2 -12 -4 -23 -5 -11 -1 -21 -3
-22 -5 -2 -1 -14 -3 -28 -4 -14 -2 -40 -6 -57 -10 -30 -6 -33 -4 -34 19 -1 14
-2 31 -3 38 -1 6 -1 14 0 17 4 9 374 6 374 -2z m3264 -52 c142 -27 411 -133
735 -289 l64 -30 -73 -22 -73 -22 -39 -109 c-21 -60 -40 -113 -42 -119 -2 -5
-8 -23 -14 -38 -7 -16 -12 -31 -12 -35 -1 -4 -9 -25 -20 -47 -11 -22 -19 -43
-20 -47 0 -8 -31 -78 -91 -206 -21 -45 -39 -84 -39 -87 -2 -10 -141 -277 -211
-403 -14 -26 -37 -70 -52 -98 -27 -50 -77 -104 -97 -104 -5 0 -10 -4 -10 -9 0
-20 -410 -241 -448 -241 -7 0 -12 -5 -12 -12 0 -6 -3 -9 -6 -5 -4 3 -25 -4
-48 -15 -22 -12 -43 -22 -46 -23 -6 -1 -130 -64 -180 -91 -24 -14 -43 -37 -62
-74 -43 -91 -56 -195 -52 -450 2 -124 5 -238 8 -255 2 -16 7 -61 10 -100 14
-142 16 -157 22 -167 5 -7 2 -8 -6 -3 -8 5 -11 4 -7 -2 10 -16 22 -128 33
-291 2 -44 11 -76 30 -107 36 -62 31 -131 -16 -208 -27 -46 -40 -57 -69 -63
-20 -4 -38 -8 -41 -9 -29 -8 -72 -16 -105 -19 -22 -3 -65 -8 -95 -11 -30 -3
-80 -8 -110 -10 -85 -6 -167 -14 -198 -20 -15 -2 -51 -9 -81 -15 -30 -6 -58
-7 -63 -2 -19 19 -25 151 -12 312 10 127 11 318 2 382 -4 26 -14 63 -24 83
-20 44 -78 95 -107 96 -12 0 -30 2 -40 4 -10 2 -33 -10 -51 -26 -54 -47 -71
-127 -70 -329 0 -145 4 -203 20 -325 15 -113 20 -143 33 -202 l8 -43 -41 -1
c-22 0 -50 -2 -61 -4 -11 -2 -60 -7 -110 -10 -49 -3 -108 -7 -130 -9 -64 -6
-217 -19 -250 -21 -16 -2 -68 -6 -114 -9 -47 -4 -88 -9 -92 -11 -3 -3 -14 4
-24 15 -10 11 -15 20 -10 20 4 0 3 6 -3 13 -17 20 -25 91 -23 212 5 364 4 390
-30 463 -22 49 -97 103 -132 96 -47 -8 -80 -40 -93 -86 -1 -5 -2 -9 -4 -10 -1
-2 -4 -12 -6 -23 -15 -67 -19 -127 -18 -270 0 -143 4 -203 19 -325 3 -19 7
-58 10 -87 l5 -52 -32 -6 c-18 -3 -46 -7 -63 -9 -16 -2 -30 -5 -30 -6 0 -11
-404 -20 -426 -9 -24 12 -42 99 -41 193 0 45 1 83 2 86 1 5 6 86 14 220 3 65
-14 163 -37 207 -35 67 -123 121 -161 101 -37 -20 -66 -52 -86 -97 -20 -42
-25 -63 -36 -126 -8 -49 -3 -340 6 -340 1 0 3 -25 5 -55 4 -62 12 -150 15
-165 7 -31 -2 -32 -167 -30 -165 3 -201 6 -316 26 -219 38 -372 140 -449 299
-81 168 -94 403 -42 768 29 208 45 166 -124 338 -126 129 -194 203 -331 353
-13 14 -37 43 -55 65 -17 21 -36 43 -42 50 -27 29 -181 236 -219 296 -86 134
-185 343 -185 391 0 10 -5 19 -11 19 -5 0 -8 4 -5 9 3 4 1 22 -4 40 l-9 31 47
-26 c26 -15 56 -33 68 -40 26 -15 199 -74 233 -78 14 -2 42 -6 61 -10 69 -12
250 -24 245 -16 -2 3 27 5 63 6 62 0 112 5 202 20 219 36 477 149 619 271 75
64 201 195 201 208 0 3 9 16 21 28 31 34 175 253 226 344 14 26 37 64 49 83
25 36 14 33 284 85 14 3 35 7 46 9 12 2 37 7 55 10 36 6 59 11 99 20 14 3 36
8 50 10 14 2 42 7 63 11 28 6 37 4 37 -6 0 -8 23 -52 50 -98 28 -46 50 -85 50
-87 0 -15 180 -261 235 -322 190 -210 333 -316 580 -428 79 -36 237 -80 355
-99 138 -22 451 -22 530 0 8 2 26 6 40 9 48 8 145 39 183 57 20 11 37 17 37
14 0 -4 13 3 29 14 16 12 32 21 36 21 32 0 273 212 288 253 4 9 11 17 17 17 5
0 10 6 10 14 0 8 3 16 8 18 8 3 58 78 62 93 1 6 10 21 19 35 23 33 75 144 87
185 2 6 15 44 30 85 28 79 64 201 69 235 5 36 16 90 21 107 9 29 16 78 40 262
6 51 7 53 50 54 20 1 38 3 40 5 4 3 139 -10 178 -17z m672 -1033 c-2 -27 -5
-49 -6 -50 -2 -2 -3 -6 -4 -10 -6 -36 -68 -133 -116 -182 -54 -55 -77 -74 -68
-53 34 70 45 89 54 102 7 8 27 44 45 80 18 36 37 67 41 68 4 2 8 8 8 14 0 12
39 78 46 78 3 0 3 -21 0 -47z"/>
<path d="M5960 8053 c0 -5 4 -15 9 -22 6 -10 5 -27 -5 -49 -8 -19 -14 -38 -14
-43 0 -4 32 -34 71 -65 l71 -56 39 17 c21 10 39 19 39 21 0 2 -10 20 -21 41
-42 74 -81 125 -112 144 -32 19 -77 26 -77 12z"/>
<path d="M6366 7513 c16 -39 70 -129 89 -149 6 -6 28 -34 50 -62 36 -48 65
-66 65 -42 0 17 -90 194 -104 205 -7 6 -27 21 -45 35 -18 14 -39 31 -46 38
-23 20 -25 14 -9 -25z"/>
<path d="M5570 7572 c0 -4 11 -37 24 -75 14 -37 22 -68 18 -69 -4 0 -11 -2
-17 -3 -5 -2 -24 -3 -42 -4 l-32 -1 17 -37 c29 -64 36 -71 72 -76 19 -2 40 -6
45 -7 22 -5 42 1 62 19 57 53 -31 239 -121 255 -14 3 -26 2 -26 -2z"/>
<path d="M3828 3160 c-49 -14 -139 -82 -205 -155 -70 -77 -176 -222 -208 -283
-11 -20 -22 -39 -26 -42 -14 -12 -106 -214 -115 -252 -1 -5 -2 -9 -4 -10 -15
-19 -19 -181 -6 -232 14 -58 63 -115 126 -147 87 -45 237 -36 351 21 36 18 60
25 66 19 12 -12 202 -78 245 -85 86 -14 216 -13 271 3 77 21 160 96 173 156 1
4 2 8 4 10 16 20 13 174 -4 222 -5 11 -14 36 -21 55 -20 54 -66 151 -92 193
-13 20 -21 37 -18 37 3 0 -3 10 -15 22 -11 12 -20 27 -20 33 0 7 -9 20 -20 30
-11 10 -17 21 -15 25 2 4 -4 15 -15 25 -11 10 -20 22 -20 27 0 4 -7 16 -15 26
-8 9 -43 51 -77 92 -84 103 -143 157 -210 191 -47 24 -90 30 -130 19z m152
-437 c0 -5 20 -28 45 -53 24 -25 44 -48 45 -51 0 -4 16 -31 36 -60 70 -104
151 -292 135 -317 -3 -5 -31 -17 -62 -26 l-56 -17 -144 81 -143 81 -64 -16
c-36 -9 -66 -15 -67 -13 -4 4 57 131 66 138 3 3 14 21 24 40 10 19 21 37 24
40 3 3 20 25 36 49 55 82 125 151 125 124z"/>
</g>
</svg>
