<?xml version="1.0" encoding="UTF-8"?><svg id="Ebene_2" xmlns="http://www.w3.org/2000/svg" viewBox="0 0 154.01 178.61"><g id="Ebene_1-2"><path d="m97.96,89.19c0,5.64,2.52,17.44-3.35,20.93-2.94,1.75-8.52,1.9-11.84,2.39-4.46.66-8.93,1.21-13.43,1.57-7.41.59-17.75,1.98-24.68-1.47-8.01-4-6.59-12.22-6.59-19.61-5.76-4.57-13.83-10.94-12.28-19.31-1.94-3.78-3.2-7.16-4.28-11.29-1.33-1.16-2.74-2.4-4.22-3.69.69-6.41,1.71-7.03,7.94-7.72.77-4.15,3.49-7.81,6.26-10.87,2.08-2.3,5.73-7.23,9.15-7.13-3.96-10.89-3.63-23.96,4.44-32.99,9.39,0,15.98.94,24.12,5.92,1.5-1.05.55-3.13,1.99-4.27,7.25-2.84,18.1,6.13,23.02,10.47,1.45-.82,1.11-2.66,3.19-3.27,1.83-.54,4.35.79,5.92,1.53,4.17,1.94,7.89,4.69,10.19,8.72,4.95,8.66,3.63,19.97-.09,28.81,1.1,2.76,2.15,5.43,3.31,8.34,4.47,1.99,7.48,3.67,6.73,9.28-.71,5.28-4.13,8.24-7.69,3.13-2.38,4.03-2.99,8.83-5.96,12.77-2.72,3.6-7.24,7.13-11.84,7.76ZM63.89,19.8c1.1,1.13,1.72,2.08,2.54,3.39.32-.64.57-1.11.82-1.6-1.3-2.05-2.84-4.45-4.89-5.98.21,1.66.89,2.73,1.58,4.24-.45-.11-.9-.21-1.27-.3-1.61.76.36,2.51.91,3.28l.32-.12v-2.91Zm18.62,3.82l-.04-.04c.07,1.63,4.68,1.29,5.62,1.34.91,1.73,2.75,2.71,4.15,2.43-.58-.33-1.06-.61-1.4-.8-1.24-1.67-1.86-3.8-4.34-3.69-1-1.3-3.11-5.46-5.13-5.63-.22-.38-.42-.71-.69-1.15-.49.41-.7.93-.63,1.56-.71-.97-1.27-1.74-1.83-2.51-.08.04-.15.09-.23.13.31.84.61,1.68.93,2.57-.17.35-.37.75-.62,1.27.87,1.25,2.39,4.59,4.22,4.52Zm4.68-9.48c-.81.58-1.26-.52-2.08-.46.64,3.01,3.8,5.59,6.18,7.1,1.2,1.51,1.87,3.96,3.9,5.44.18-.22.36-.44.53-.63.68.6,1.27,1.13,1.87,1.65-.42-2.14-.51-4.34-2.35-5.71-.54.06-1,.11-1.46.17l.04.04c-.1-.33-.19-.67-.29-.99,3.08-1.13,3.77.97,5.34,3.36-.03-1.97-1.45-3.21-2.33-4.62.16-.82,1.65-.8.99-2.1-1.92,1.19-3.83,1.99-5.7-.09.24-.91-.16-1.67-.97-2.29-.19.23-.34.4-.53.62-.99-.95-1.88-1.81-2.81-2.71.5-.08.72-.32.67-.69-2.4-2.12-5.1-3.78-8.62-4.76,1.98,2.5,6.34,3.59,7.59,6.73l.03-.04Zm-31.37,51.87c-2.95,5.04-5.4,9.42-11.3,11.35-4.46,1.46-10.41,1.69-14.32-1.09,1.04,6.21,8.3,13.19,12.58,17.57-.5,3.89-1.68,9.29.74,12.84,2.25,3.29,7.55,3.17,11.15,3.17-.07-2.49-1.61-9.08,1.36-10.3,4.27,1.11.91,7.49,2.52,10.24,2.31.16,4.59,0,6.98-.44-.24-1.65-1.58-11.48,1.39-10.6,3.34,1,.59,7.65,2.2,10.17,3.38-.27,6.73-.55,10.21-.83-.43-1.66-2.34-13.13,1.6-11.33,2.82,1.29.33,8.7,1.46,10.91,2.99-.83,6.2-.42,9.05-1.34.99-1.37,1.37-2.6.26-3.74,0-3.83-2.02-14.14.2-17.34,3.31-2.03,7.71-3.19,10.6-5.79,3.04-5.39,5.25-9.68,7.15-15.58.67-.2,1.09-.32,1.87-.55-3.42-1.48-9.51-4.88-13.29-4.05-.89,8.74-4,17.92-13.96,18.51-10.14.6-16.42-4.63-20.9-13.25-2.63.51-5.09.99-7.54,1.47Zm-12.79-28.74c-6.17,2.97-11.62,6.56-13.73,13.56,5.68,0,25.27-5.66,26.52,3.49,2.16-.26,4.22-.5,6.35-.76.08-.87.16-1.64.23-2.45.51-.45,1.02-.89,1.48-1.3,6.56-.53,13.14-.77,19.71-1.08,3.4-.16,7.04-.54,10.44-.37,3.01.15,3.42.85,4.48,3.87,3.39-.48,6.39,1.02,9.94,1.52-5.5-10.03-14.85-16.15-25.54-19.22-5.98-1.71-12.88-.95-17.97,2.78-4.13,3.03-5.89,9.18-10.09,11.73-5.8-1-8.5-7.99-11.83-11.8Zm3.09-31.22c-2.63,6.47-3.93,12.11-2.33,19.05,1.19,5.14,4.18,14.09,9.27,16.63,2.55-3.64,4.9-6.19,8.31-9.02.25-1.01-1.01-.68-1.56-1.45-.5-1.84-1.07-3.94-1.65-6.08.53-.06.86-.1,1.35-.16-.26-.58-.47-1.04-.61-1.35-.9-.39-1.65-.71-2.12-.92-1.74-4.3-3.86-8.17-6.14-12.21.09-.37.17-.71.23-.99-.66-.79-1.25-1.5-1.81-2.17.28-.58.48-.98.72-1.47-1.31-.42-2.45-.3-3.68.15Zm50.86,24.5c2.09,1.83,4.85,2.51,7.07,4.31,2.04,1.66,4.31,5.42,7.17,5.47,2.03-3.71,1.34-8.05-.07-11.84-.89-2.4-3.77-9.44-6.85-9.62,1.51,2.53,3.05,4.16,4.05,7.08.6,1.75,2.51,4.61,2.09,6.34-.74-1.12-1.58-3.43-2.99-3.82.45,1.02.78,1.78,1.16,2.64-.56.12-.98.2-1.36.28-.18,1.29,1.1,1.17,1.6,1.89-.73.91.27,2.41-1.2,3.18-2.21-.27-3.67-2.95-5.19-4.29-1.27-1.11-3.52-2.08-4.22-3.7-.45.74-.83,1.39-1.26,2.1ZM63.52,9.87c1.95,1.56,3.72,3.33,6.22,4.24,1.16-.58,2.99.93,3.7,0-1-1.4-1.01-1.45-.12-2.84.45-.03.9-.07,1.27-.1.8-.99-.47-1.6-.16-2.74.1-.06.46-.27.83-.48-.36-.64-.64-1.12-.95-1.66-1.13.6-2.77,5.37-3.7,6.61-2.24-1.25-4.64-2.18-7.08-3.02Zm1.44,14.52c-.12,2.31.83,3.39,2.73,3.2,1.24,1.66,3.85-.13,4.83-1.17-.81-.31-1.41-.55-2.02-.78-.38.46-.7.85-1.05,1.28-.44-.08-.84-.16-.96-.18-.86-1.08-1.56-1.96-2.3-2.89-.46.2-.83.37-1.24.54Zm34.16-3.97c.19,1.02.36,1.91.55,2.86,1.11.67,2.77,2.48,3.99,2.75.16-.64.3-1.18.48-1.9-.7-.44-1.56-.99-2.66-1.69-.37-.78-1.17-1.53-2.35-2.01Zm-14.37-2.26c1.88,1.89,4.19,5.55,6.67,6.62.32-1.55-3.32-4.87-4.26-6.06-.79-.18-1.42-.33-2.41-.56Zm-21.85,8.88c1.7-1.73-1.82-4.33-2.92-5.57.29-.17.53-.31.86-.5-.29-.56-.55-1.05-.82-1.57-.45.32-.81.57-1.23.88.72,1.25,2.83,5.94,4.12,6.77Zm42.26,3.02c.08-.08.17-.15.25-.23-1.36-1.67-3.31-5.35-5.97-4.43,1.71,2.02,3.98,3.02,5.72,4.66Zm-31.15-6.49c-.91.77-.7,1.51-.52,2.29,1.01.33,1.69,0,2.28-.89-.59-.48-1.14-.91-1.75-1.4Zm3.76-.67c-.69.45-1.23.8-1.89,1.22,1.24.59,2.27,1.17,3.55.02-.58-.43-1.06-.79-1.67-1.24Zm-21.75,35.71c.06.47.1.75.15,1.07,1.6-.3,3.09-.59,4.59-.87-.01-.07-.02-.13-.03-.2h-4.71Zm51.33,17.5c1.71-1.06,2.85-3.19,2.56-4.6-.9,1.61-1.73,3.11-2.56,4.6ZM68.97,15.78q-1.44-.81-2.08-.77c.64,1.09,2.38,2.53,3.18,2.62-.36-.6-.71-1.2-1.1-1.85Zm-5.34,14.84c.41.56.89.63,1.48,0-.14-1.03-.28-2.05-.42-3.07-.08,0-.16,0-.23,0-.26.94-.51,1.89-.83,3.06Zm9.64-8.11c-.58-.76-1.02-1.34-1.49-1.95-.4.12-.73.22-1.08.33.36.72.69,1.37,1.04,2.07.5-.15.93-.28,1.52-.46Zm-13.83-14.05c0-.09.02-.17.03-.26-1.82-.31-2.54-.57-4.07-1.32-.06.1-.13.2-.19.31.44.4.89.8,1.24,1.12,1.09.06,2.04.1,3,.15Zm1.16,17.2c-.77,1.11-.7,1.65.42,2.96.3-1.11.16-2.15-.42-2.96Z" style="fill:#fff; stroke-width:0px;"/><path d="m132.72,153.88c.02-.96.42-2-.12-3.03q-1.12,1.54-2.23,1.72c0-11.82,1.89-26.11,13.32-32.39-.35-6.14-12.92-13.51-17.69-15.84-.04-.46-.09-1.03-.16-1.78-.24-.12-.7-.35-1.28-.63-2.49,5.33-4.34,9.42-8.38,13.89-4.01,4.45-8.93,8.22-13.54,12.02-4.55,3.75-8.95,7.16-13.98,10.19-5.29,3.19-8.66,6.85-14.95,4.71-.1.09-.41.38-.75.69-1.11-.38-2.18-.75-3.07-1.06-20.2.7-38.85-12.3-47.97-29.78-7.36,3.34-15.24,8.45-18.66,16.1,9.7,9.6,20.19,20.84,22.26,35.01q-2.24-.07-3.53-1.01c-4.95-12.29-10.68-21.97-20.31-31.22-7.44-7.14,11.83-20.54,17.81-23.27,0-4.1,5.76-12.37,10.59-7.88,1.49,1.39,1.35,5.35,2.15,7.43,1.21,3.15,3.02,5.62,5.36,8.04,9.14,9.48,18.62,16.93,31.61,20.06q1.05.94,1.57,2.51c2.09,1.02,10.42-7.17,12.21-8.58,4.48-3.51,9.07-7.2,13-11.33,3.3-3.46,6.69-7.1,8.84-11.4,2.02-4.04,2.66-9.13,4.92-12.82,2.22-3.62,6.04-3.37,9.65-2.14,4.14,1.41,4.06,3.17,7.12,5.75,3.37,2.84,8.92,3.65,12.71,6.2,4.68,3.14,8.6,6.95,12.18,11.24-.17.33-.33.63-.55,1.04.84.23,1.59.43,2.57.7.19.76.42,1.64.58,2.29-2.61,3.66-6.34,6.14-8.96,9.77-2.31,3.19-3.04,6.9-4.25,10.57-1.3,3.93-2.59,7.66-3.26,11.74-.59,3.62-1.11,5.05-4.82,2.5Zm-37.08-27.06c4.56-4.56,9.56-8.75,14.03-13.33,1.89-1.94,9.98-12.23,7.47-15.19-1.1-.05-2.25.55-3.33-.12-.15-.36-.28-.69-.42-1.02-1.46,3.31-1.8,6.74-3.44,10.04-1.9,3.81-4.24,6.88-6.98,10.12-4.98,5.9-11.15,10.48-16.44,16.06,1.56-.17,4.29-2.23,4.8-3.78,1.55-1,2.99-1.92,4.32-2.78Zm-71.28-21.26c4.91,12.34,12.4,22.35,25.1,27.53.06-.1.11-.21.17-.31-10.28-8.03-18.63-15.52-23.64-27.82-.69-.17-1.3.05-1.63.6Zm121.57,13.99c-.08,1.5-4.41,5.27-5.45,6.56-2.24,2.78-3.71,5.28-5.17,8.57-.68,1.55-5.47,15.39-2.32,15.27,1.04-10.66,4.7-19.77,11.99-27.83,2.12-2.35,2.31-1.96,1.26-4.65-.77-1.98-2.68-3.95-4.12-5.48-1.42-1.51-7.83-8.31-10.22-6.94,4.02,2.94,7.24,6.42,11.13,9.46.42,2.03,1.68,3.49,2.9,5.04Z" style="fill:#fff; stroke-width:0px;"/><path d="m96.23,155.48c-2.59.55-4.93,1.05-7.34,1.55-.66,2.15.38,5.31.61,7.5,1.57.24,3.1.08,4.84-.11-.99-8.69,9.36,1.25,11.2,4.46-3.5,1.68-3.25,6.3-5.8,8.64-2.62,2.4-4.28.53-4.28-2.69-3.92.27-8.42,1.65-12.2.29-4.32-1.56-3.41-7.29-3.59-11.6-.14-3.37-1.61-11.16,1.14-13.89,2.5-2.48,9.85-1.52,13.23-3-.26-1-.5-1.94-.74-2.88,1.65-2.82,3.7-.78,5.59.57,1.71,1.22,6.25,2.84,6.33,5.36.04,1.35-3.13,6.84-4.09,7.97-2.6,3.07-3.9.77-4.91-2.18Z" style="fill:#fff; stroke-width:0px;"/><path d="m60.59,169.94c.22-.25.5-.56.7-.79.7-.14,1.28-.26,2.14-.43-1.68-2.53-2.15-5.54-5.02-7.01-1.35.57-1.21,2.44-2.49,2.93-.21.7-.39,1.3-.61,2.02-3.85,0-5.71-3.23-8.72-5.61-.79,1.25-1.91,4.76-2.13,6.62,1.4.53,2.03,1.79,2.74,3.25-1.87,1.67-3.76,5.16-6.31,4.59-2.36-.53-4.61-4.59-5.94-6.22.69-3.19,1.51-1.03,3.17-2.26,1.45-1.08,1.51-1.68,2.25-3.71,1.6-4.41,2.68-9.22,5.34-13.12,3.21.13,5.43,4.15,7.3,6.3,2.35-1.69,4.18-5.18,5.95-7.45,3.14-.36,4.33,3.74,5.46,5.94,1.97,3.83,3.91,7.62,6.14,11.3,2.43-.1,4.09.62,3.55,3.22-.21,1.01-3.53,7.19-4.16,7.57-2.75,1.64-9.37-3.96-9.37-7.13Z" style="fill:#fff; stroke-width:0px;"/><path d="m60.31,88.83c-3.13,1.81-7.06,1.23-6.8-3.01.16-2.61,4.88-10.46,7.78-10.49,2.84-.04,7.89,8.27,8,10.88.22,5.26-5.8,4.3-8.98,2.62Zm2.15-8.05c-1.03.82-2.87,3.65-3.3,5.06.51-.14,1-.28,1.64-.46,1.11.62,2.27,1.28,3.6,2.02.42-.12,1-.27,1.56-.42-.23-1.78-2.03-4.94-3.49-6.2Z" style="fill:#fff; stroke-width:0px;"/><path d="m87.16,14.17c1.63.02,2.06,1.36,2.87,2.61-.32.16-.65.31-1.02.49-.5-.4-1.15-.92-1.85-1.49.15-.36.28-.67.41-.98-.13-.22-.26-.45-.39-.68l-.03.04Z" style="fill:#fff; stroke-width:0px;"/><path d="m93.77,21.69c.42.84.84,1.69,1.26,2.53-.1.06-.2.11-.31.17-.91-1.13-1.95-2.17-2.51-3.88.67.52,1.13.87,1.59,1.22l-.04-.04Z" style="fill:#fff; stroke-width:0px;"/><path d="m82.51,23.62c-.19-.42-.39-.83-.64-1.37.43-.03.75-.05,1.22-.08-.21-.63-.4-1.18-.64-1.9,1.48.07,2.14,1.58,2.08,3.05-.65.82-1.39.19-2.07.25l.04.04Z" style="fill:#fff; stroke-width:0px;"/></g></svg>